<?xml version="1.0" encoding="UTF-8"?>
<svg width="400px" height="400px" viewBox="0 0 400 400" version="1.1" xmlns="http://www.w3.org/2000/svg" xmlns:xlink="http://www.w3.org/1999/xlink">
    <!-- Generator: Sketch 46.2 (44496) - http://www.bohemiancoding.com/sketch -->
    <title>saku-logo</title>
    <desc>Created with Sketch.</desc>
    <defs></defs>
    <g id="Page-1" stroke="none" stroke-width="1" fill="none" fill-rule="evenodd">
        <g id="Artboard" transform="translate(-250.000000, -112.000000)">
            <g id="saku-logo" transform="translate(250.000000, 112.000000)">
                <circle id="Oval" fill="#375EAB" cx="200" cy="200" r="200"></circle>
                <g id="Group" transform="translate(116.000000, 141.000000)" fill="#FFFFFF">
                    <path d="M57.8684986,38.9726929 L74.2794786,24.7068456 C79.9683581,19.7615782 80.5711747,11.1408988 75.6259073,5.4520194 L75.6259073,5.4520194 C70.6806398,-0.236860048 62.0599604,-0.839676672 56.371081,4.10559078 L4.72052136,49.0047373 L4.72052136,49.0047373 C-0.968358082,53.9500047 -1.57117471,62.5706841 3.37409275,68.2595635 L3.37409275,68.2595635 L3.37409275,68.2595635 C8.3193602,73.948443 16.9400396,74.5512596 22.628919,69.6059921 L30.5715682,62.7015525 L30.5715682,104.721094 C30.5715682,112.258933 36.6821942,118.369559 44.2200334,118.369559 C51.7578726,118.369559 57.8684986,112.258933 57.8684986,104.721094 L57.8684986,38.9726929 Z" id="Combined-Shape"></path>
                    <path d="M119.670475,83.319708 L119.670475,76.4894683 L144.908962,76.4894683 C151.321765,76.4894683 156.520369,71.290864 156.520369,64.8780607 C156.520369,58.4652573 151.321765,53.266653 144.908962,53.266653 L144.908962,53.266653 L119.670475,53.266653 L119.670475,46.4364133 L156.388592,46.4364133 C162.801396,46.4364133 168,41.237809 168,34.8250057 C168,28.4122023 162.801396,23.213598 156.388592,23.213598 L156.388592,23.213598 L138.280791,23.213598 C142.521222,18.1558913 142.577674,10.6258779 138.110098,5.48651852 L138.110098,5.48651852 C133.160477,-0.207368686 124.532209,-0.810715952 118.838322,4.13890468 L67.7215539,48.5740331 L67.7215539,48.5740331 C62.0276667,53.5236537 61.4243194,62.1519216 66.37394,67.8458088 L66.37394,67.8458088 L66.37394,67.8458088 C71.3235607,73.539696 79.9518285,74.1430433 85.6457158,69.1934227 L92.3297922,63.3830437 C92.2668777,63.8724968 92.2344385,64.3714904 92.2344385,64.8780607 C92.2344385,65.4351325 92.2736681,65.9830419 92.3495153,66.5191768 L92.3495156,93.2899977 C92.2736681,93.8261344 92.2344385,94.3740437 92.2344385,94.9311156 C92.2344385,95.4881875 92.2736681,96.0360969 92.3495153,96.5722318 L92.3495156,104.662793 C92.3495156,112.207267 98.4655206,118.323272 106.009995,118.323272 C112.916742,118.323272 118.626308,113.197527 119.542206,106.542523 L142.40303,106.542523 C148.815833,106.542523 154.014437,101.343919 154.014437,94.9311156 L154.014437,94.9311156 C154.014437,88.5183123 148.815833,83.319708 142.40303,83.319708 L142.40303,83.319708 L119.670475,83.319708 Z" id="Combined-Shape"></path>
                </g>
                <g id="Go-Logo_Aqua" transform="translate(312.000000, 11.000000)" fill-rule="nonzero" fill="#375EAB">
                    <path d="M6.15228426,8.94736842 C6,8.94736842 5.96192893,8.84210526 6.03807107,8.68421053 L6.83756345,7.26315789 C6.91370558,7.10526316 7.10406091,7 7.25634518,7 L20.8477157,7 C21,7 21.0380711,7.15789474 20.9619289,7.31578947 L20.3147208,8.68421053 C20.2385787,8.84210526 20.0482234,9 19.9340102,9 L6.15228426,8.94736842 Z" id="Shape"></path>
                    <path d="M0.153766832,13 C-1.24287097e-15,13 -0.038441708,12.8918919 0.038441708,12.7297297 L0.845717576,11.2702703 C0.922600992,11.1081081 1.11480953,11 1.26857636,11 L18.7979952,11 C18.951762,11 19.0286455,11.1621622 18.9902037,11.3243243 L18.6826701,12.6216216 C18.6442284,12.8378378 18.4904615,12.9459459 18.3366947,12.9459459 L0.153766832,13 Z" id="Shape"></path>
                    <path d="M9.15584416,16.9473684 C9,16.9473684 8.96103896,16.7894737 9.03896104,16.6315789 L9.58441558,15.3157895 C9.66233766,15.1578947 9.81818182,15 9.97402597,15 L17.7662338,15 C17.9220779,15 18,15.1578947 18,15.3684211 L17.9220779,16.6315789 C17.9220779,16.8421053 17.7662338,17 17.6493506,17 L9.15584416,16.9473684 Z" id="Shape"></path>
                    <g id="CXHf1q_1_" transform="translate(21.000000, 0.000000)">
                        <g id="Group">
                            <path d="M28.275,8.57692308 C25.8710526,9.19230769 24.2302632,9.65384615 21.8644737,10.2692308 C21.2921053,10.4230769 21.2539474,10.4615385 20.7578947,9.88461538 C20.1855263,9.23076923 19.7657895,8.80769231 18.9644737,8.42307692 C16.5605263,7.23076923 14.2328947,7.57692308 12.0578947,9 C9.46315789,10.6923077 8.12763158,13.1923077 8.16578947,16.3076923 C8.20394737,19.3846154 10.3026316,21.9230769 13.3171053,22.3461538 C15.9118421,22.6923077 18.0868421,21.7692308 19.8039474,19.8076923 C20.1473684,19.3846154 20.4526316,18.9230769 20.8342105,18.3846154 C19.4605263,18.3846154 17.7434211,18.3846154 13.4697368,18.3846154 C12.6684211,18.3846154 12.4776316,17.8846154 12.7447368,17.2307692 C13.2407895,16.0384615 14.1565789,14.0384615 14.6907895,13.0384615 C14.8052632,12.8076923 15.0723684,12.4230769 15.6447368,12.4230769 C17.5907895,12.4230769 24.7644737,12.4230769 29.5342105,12.4230769 C29.4578947,13.4615385 29.4578947,14.5 29.3052632,15.5384615 C28.8855263,18.3076923 27.8552632,20.8461538 26.1763158,23.0769231 C23.4289474,26.7307692 19.8421053,29 15.3013158,29.6153846 C11.5618421,30.1153846 8.08947368,29.3846154 5.03684211,27.0769231 C2.21315789,24.9230769 0.610526316,22.0769231 0.190789474,18.5384615 C-0.305263158,14.3461538 0.915789474,10.5769231 3.43421053,7.26923077 C6.14342105,3.69230769 9.73026316,1.42307692 14.1184211,0.615384615 C17.7052632,-0.0384615385 21.1394737,0.384615385 24.2302632,2.5 C26.2526316,3.84615385 27.7026316,5.69230769 28.6565789,7.92307692 C28.8855263,8.26923077 28.7328947,8.46153846 28.275,8.57692308 Z" id="Shape"></path>
                            <path d="M40.9052632,29.8461538 C37.4328947,29.7692308 34.2657895,28.7692308 31.5947368,26.4615385 C29.3434211,24.5 27.9315789,22 27.4736842,19.0384615 C26.7868421,14.6923077 27.9697368,10.8461538 30.5644737,7.42307692 C33.35,3.73076923 36.7078947,1.80769231 41.2486842,1 C45.1407895,0.307692308 48.8039474,0.692307692 52.1236842,2.96153846 C55.1381579,5.03846154 57.0078947,7.84615385 57.5039474,11.5384615 C58.1526316,16.7307692 56.6644737,20.9615385 53.1157895,24.5769231 C50.5973684,27.1538462 47.5065789,28.7692308 43.9578947,29.5 C42.9276316,29.6923077 41.8973684,29.7307692 40.9052632,29.8461538 Z M49.9868421,14.3076923 C49.9486842,13.8076923 49.9486842,13.4230769 49.8723684,13.0384615 C49.1855263,9.23076923 45.7131579,7.07692308 42.0881579,7.92307692 C38.5394737,8.73076923 36.25,11 35.4105263,14.6153846 C34.7236842,17.6153846 36.1736842,20.6538462 38.9210526,21.8846154 C41.0197368,22.8076923 43.1184211,22.6923077 45.1407895,21.6538462 C48.1552632,20.0769231 49.7960526,17.6153846 49.9868421,14.3076923 Z" id="Shape"></path>
                        </g>
                    </g>
                </g>
            </g>
        </g>
    </g>
</svg>